<svg width="15" height="20" viewBox="0 0 15 20" fill="none" xmlns="http://www.w3.org/2000/svg">
<path d="M7.51748 14.0389C9.07465 12.7737 10.2506 11.5572 11.0455 10.3893C11.8403 9.22141 12.2377 8.11841 12.2377 7.08029C12.2377 6.20438 12.0797 5.45401 11.7637 4.8292C11.4471 4.20503 11.0493 3.70219 10.5705 3.32068C10.0923 2.93982 9.57749 2.66018 9.02599 2.48175C8.47449 2.30333 7.97165 2.21411 7.51748 2.21411C7.0633 2.21411 6.56046 2.30333 6.00896 2.48175C5.45746 2.66018 4.94262 2.93982 4.46443 3.32068C3.9856 3.70219 3.5882 4.20503 3.27222 4.8292C2.95559 5.45401 2.79728 6.20438 2.79728 7.08029C2.79728 8.11841 3.19469 9.22141 3.98949 10.3893C4.7843 11.5572 5.9603 12.7737 7.51748 14.0389ZM7.51748 16.4477C7.35527 16.4477 7.19306 16.4234 7.03086 16.3747C6.86865 16.326 6.72267 16.253 6.5929 16.1557C4.56533 14.5661 3.05292 13.0209 2.05568 11.5202C1.05778 10.0201 0.558838 8.54015 0.558838 7.08029C0.558838 5.91241 0.773923 4.88629 1.20409 4.00195C1.63361 3.11825 2.17701 2.38021 2.83426 1.78783C3.49087 1.19611 4.2328 0.750041 5.06005 0.449635C5.88731 0.149878 6.70645 0 7.51748 0C8.32851 0 9.14765 0.149878 9.9749 0.449635C10.8021 0.750041 11.5441 1.19611 12.2007 1.78783C12.8579 2.38021 13.4017 3.11825 13.8318 4.00195C14.2614 4.88629 14.4761 5.91241 14.4761 7.08029C14.4761 8.54015 13.9775 10.0201 12.9802 11.5202C11.9824 13.0209 10.4696 14.5661 8.44205 16.1557C8.32851 16.253 8.18641 16.326 8.01577 16.3747C7.84578 16.4234 7.67968 16.4477 7.51748 16.4477ZM7.51748 9.02676C8.0852 9.02676 8.57571 8.82401 8.98901 8.41849C9.40296 8.01298 9.60993 7.51825 9.60993 6.93431C9.60993 6.36659 9.40296 5.87997 8.98901 5.47445C8.57571 5.06894 8.0852 4.86618 7.51748 4.86618C6.94975 4.86618 6.45924 5.06894 6.04594 5.47445C5.63199 5.87997 5.42502 6.36659 5.42502 6.93431C5.42502 7.51825 5.63199 8.01298 6.04594 8.41849C6.45924 8.82401 6.94975 9.02676 7.51748 9.02676ZM1.67806 20C1.36987 20 1.10645 19.8946 0.887792 19.6837C0.668489 19.4728 0.558838 19.2133 0.558838 18.9051C0.558838 18.5807 0.668489 18.3131 0.887792 18.1022C1.10645 17.8913 1.36987 17.7859 1.67806 17.7859H13.3569C13.6651 17.7859 13.9285 17.8913 14.1472 18.1022C14.3665 18.3131 14.4761 18.5807 14.4761 18.9051C14.4761 19.2133 14.3665 19.4728 14.1472 19.6837C13.9285 19.8946 13.6651 20 13.3569 20H1.67806Z" fill="#1C1B1F"/>
</svg>
