<svg width="20" height="20" viewBox="0 0 20 20" fill="none" xmlns="http://www.w3.org/2000/svg">
<path d="M10.238 10C8.84915 10 7.66859 9.50873 6.69637 8.52619C5.72415 7.54444 5.23804 6.36905 5.23804 5C5.23804 3.61111 5.72415 2.43056 6.69637 1.45833C7.66859 0.486111 8.84915 0 10.238 0C11.6269 0 12.8075 0.486111 13.7797 1.45833C14.7519 2.43056 15.238 3.61111 15.238 5C15.238 6.36905 14.7519 7.54444 13.7797 8.52619C12.8075 9.50873 11.6269 10 10.238 10ZM0.476135 20V16.4286C0.476135 15.6944 0.659865 15.0298 1.02733 14.4345C1.39399 13.8393 1.88487 13.3829 2.49994 13.0655C3.74994 12.4306 5.01979 11.9591 6.30947 11.6512C7.59915 11.344 8.90867 11.1905 10.238 11.1905C11.5674 11.1905 12.8769 11.344 14.1666 11.6512C15.4563 11.9591 16.7261 12.4206 17.9761 13.0357C18.5912 13.3532 19.0825 13.8147 19.4499 14.4202C19.8166 15.025 19.9999 15.6944 19.9999 16.4286V20H0.476135ZM3.18447 17.2917H17.2916V16.4583C17.2916 16.2401 17.2372 16.0417 17.1285 15.8631C17.019 15.6845 16.8749 15.5556 16.6964 15.4762C15.6646 14.9405 14.6079 14.5437 13.5261 14.2857C12.4452 14.0278 11.3492 13.8988 10.238 13.8988C9.12693 13.8988 8.0309 14.0278 6.94994 14.2857C5.8682 14.5437 4.81145 14.9405 3.77971 15.4762C3.60114 15.5556 3.45748 15.6845 3.34875 15.8631C3.23923 16.0417 3.18447 16.2401 3.18447 16.4583V17.2917ZM10.238 7.29167C10.873 7.29167 11.4138 7.06825 11.8607 6.62143C12.3067 6.1754 12.5297 5.63492 12.5297 5C12.5297 4.36508 12.3067 3.82421 11.8607 3.37738C11.4138 2.93135 10.873 2.70833 10.238 2.70833C9.60312 2.70833 9.06264 2.93135 8.61661 3.37738C8.16979 3.82421 7.94637 4.36508 7.94637 5C7.94637 5.63492 8.16979 6.1754 8.61661 6.62143C9.06264 7.06825 9.60312 7.29167 10.238 7.29167Z" fill="#1C1B1F"/>
</svg>
