<svg width="21" height="20" viewBox="0 0 21 20" fill="none" xmlns="http://www.w3.org/2000/svg">
<path d="M9.57845 17.7206V15.8088C9.05557 15.8088 8.6023 15.6209 8.21864 15.2451C7.83433 14.8693 7.64217 14.4118 7.64217 13.8725V12.9167L2.98531 8.23529C2.93629 8.52941 2.89152 8.82353 2.85099 9.11765C2.80982 9.41176 2.78923 9.70588 2.78923 10C2.78923 11.9608 3.43465 13.6765 4.7255 15.1471C6.01635 16.6176 7.634 17.4755 9.57845 17.7206ZM16.2941 15.2451C16.9641 14.5261 17.4706 13.7134 17.8137 12.8069C18.1569 11.8997 18.3284 10.9641 18.3284 10C18.3284 8.41503 17.8912 6.96471 17.0167 5.64902C16.1428 4.33399 14.9624 3.39052 13.4755 2.81863V3.18627C13.4755 3.72549 13.2837 4.18301 12.9 4.55882C12.5157 4.93464 12.0621 5.12255 11.5392 5.12255H9.57845V7.08333C9.57845 7.34477 9.48465 7.56928 9.29707 7.75686C9.10884 7.9451 8.884 8.03922 8.62256 8.03922H6.66178V10H12.4951C12.7729 10 13.0059 10.0938 13.1941 10.2814C13.3817 10.4696 13.4755 10.6944 13.4755 10.9559V13.8725H14.4559C14.8807 13.8725 15.2608 13.999 15.5961 14.252C15.9307 14.5056 16.1634 14.8366 16.2941 15.2451ZM10.5588 20C9.18629 20 7.89152 19.7386 6.67452 19.2157C5.45688 18.6928 4.39479 17.982 3.48825 17.0833C2.58106 16.1846 1.86603 15.1268 1.34315 13.9098C0.820276 12.6922 0.558838 11.3889 0.558838 10C0.558838 8.61111 0.820276 7.30784 1.34315 6.0902C1.86603 4.8732 2.58106 3.81536 3.48825 2.91667C4.39479 2.01797 5.45688 1.30719 6.67452 0.784314C7.89152 0.261438 9.18629 0 10.5588 0C11.9477 0 13.251 0.261438 14.4686 0.784314C15.6856 1.30719 16.7435 2.01797 17.6422 2.91667C18.5409 3.81536 19.2516 4.8732 19.7745 6.0902C20.2974 7.30784 20.5588 8.61111 20.5588 10C20.5588 11.3889 20.2974 12.6922 19.7745 13.9098C19.2516 15.1268 18.5409 16.1846 17.6422 17.0833C16.7435 17.982 15.6856 18.6928 14.4686 19.2157C13.251 19.7386 11.9477 20 10.5588 20Z" fill="#1C1B1F"/>
</svg>
